<?xml version="1.0" encoding="utf-8"?>
<!-- Generator: Adobe Illustrator 24.0.1, SVG Export Plug-In . SVG Version: 6.00 Build 0)  -->
<svg version="1.1" id="Camada_1" xmlns="http://www.w3.org/2000/svg" xmlns:xlink="http://www.w3.org/1999/xlink" x="0px" y="0px"
	 viewBox="0 0 1280 246" style="enable-background:new 0 0 1280 246;" xml:space="preserve">
<style type="text/css">
	.st0{fill:none;}
</style>
<g transform="translate(0.000000,246.000000) scale(0.100000,-0.100000)">
	<path class="st0" d="M0,1230V0h6258c5128,1,6250,3,6221,14c-163,58-226,229-136,364c119,175,374,136,434-68c37-127-31-248-166-296
		c-33-12-28-13,77-14h112v1230v1230H6400H0V1230z M4870,2370v-80h-290h-290v80v80h290h290V2370z M1046,2210c131-34,217-83,315-180
		c68-67,95-102,128-169c64-130,76-121-161-121h-201l-51,48c-69,65-144,94-251,95c-151,1-279-62-355-175c-57-85-74-151-75-278
		c0-159,39-256,141-349c83-76,143-95,289-96c109,0,125,2,176,26c61,29,128,89,154,138l16,31h-146H880l2,163l3,162l323,3l322,2v-425
		V660h-175h-175v50v50l-53-35c-152-101-375-120-592-51c-115,37-198,89-296,186c-72,72-94,102-133,181c-68,137-88,226-90,384
		c-1,160,17,241,84,380c110,229,325,383,595,425C781,2243,955,2233,1046,2210z M5655,2205c49-14,117-41,150-58
		c75-40,199-158,244-231c33-56,81-174,81-201c0-13-30-15-189-15h-189l-64,64c-56,56-74,67-137,86c-58,18-90,22-159,18
		c-207-10-350-144-384-361c-34-221,75-412,273-479c90-30,231-23,317,16c58,27,152,112,152,137c0,5,90,9,201,9h202l-7-30
		c-12-62-68-177-117-243c-138-183-341-278-599-281c-160-1-251,19-390,86c-92,44-115,61-195,142c-99,99-153,188-195,321
		c-32,99-40,321-15,430c63,285,251,493,525,584C5308,2247,5500,2250,5655,2205z M2645,2178c15-34,565-1507,565-1514c0-2-91-4-203-4
		h-202l-54,155l-55,155h-277h-277l-38-107c-20-60-45-128-55-153l-17-45l-196-3c-108-1-196-1-196,1s131,349,290,772
		c160,422,290,770,290,772c0,1,92,3,205,3h205L2645,2178z M3620,1680c6-586,3-568,77-629c95-78,288-62,353,29c48,68,50,90,50,627
		v503h185h185v-542c0-599-1-612-63-737c-135-276-542-383-866-229c-93,44-190,143-237,241c-60,126-63,170-64,750v517l188-2l187-3
		L3620,1680z M6680,1915v-295h280h280v295v295h190h190v-775V660h-190h-190v300v300h-280h-280V960V660l-187,2l-188,3l-3,760
		c-1,418,0,766,3,773c3,9,51,12,190,12h185V1915z M8735,2178c7-18,136-361,285-763c150-401,275-736,277-743c4-9-40-12-199-12h-203
		l-55,155l-55,155h-276h-277l-28-77c-15-43-40-112-54-153l-28-75l-196-3c-108-1-196,0-196,2s122,327,271,723
		c149,395,280,742,291,771l19,52h205h205L8735,2178z M10630,2040v-169l-355-417c-195-230-355-421-355-426c0-4,162-8,360-8h360V840
		V660h-620h-620v175v174l350,415c193,228,350,417,350,421c0,3-151,5-335,5h-335v173c0,96,3,177,7,180c3,4,273,7,600,7h593V2040z
		 M11190,1915v-295h285h285v295v295h185h185v-775V660h-185h-185v300v300h-285h-285V960V660h-185h-185v775v775h185h185V1915z"/>
	<path class="st0" d="M2410,1715c-30-78-140-390-140-397c0-4,68-8,150-8c99,0,150,4,150,11c0,12-129,387-141,409
		C2423,1742,2419,1738,2410,1715z"/>
	<path class="st0" d="M8432,1532c-40-114-72-210-72-214c0-5,68-8,150-8c84,0,150,4,150,9c0,18-142,421-149,421
		C8508,1740,8472,1646,8432,1532z"/>
</g>
</svg>
